<?xml version="1.0" standalone="no"?>
<!DOCTYPE svg PUBLIC "-//W3C//DTD SVG 20010904//EN"
 "http://www.w3.org/TR/2001/REC-SVG-20010904/DTD/svg10.dtd">
<svg version="1.0" xmlns="http://www.w3.org/2000/svg"
 width="354.000000pt" height="354.000000pt" viewBox="0 0 354.000000 354.000000"
 preserveAspectRatio="xMidYMid meet">
<metadata>
Created by potrace 1.15, written by Peter Selinger 2001-2017
</metadata>
<g transform="translate(0.000000,354.000000) scale(0.100000,-0.100000)"
fill="#000000" stroke="none">
<path d="M1767 3358 c-20 -24 -50 -59 -67 -78 -124 -141 -225 -364 -237 -527
-3 -40 -10 -73 -14 -73 -18 0 -61 106 -67 162 -3 36 -9 58 -17 58 -11 0 -42
-42 -72 -97 -17 -31 -33 -135 -33 -218 l0 -70 -38 41 c-30 34 -98 84 -113 84
-2 0 -4 -55 -4 -122 0 -136 -6 -156 -71 -225 -41 -44 -94 -142 -95 -175 l0
-23 -17 25 c-23 35 -84 91 -95 87 -5 -1 -10 -25 -11 -53 -4 -74 -11 -79 -55
-42 -53 44 -104 57 -162 42 -128 -32 -150 -80 -184 -404 -45 -419 23 -598 235
-617 l57 -6 18 -51 c121 -347 417 -620 775 -713 93 -24 123 -27 265 -28 121 0
179 5 239 19 324 75 601 287 751 571 26 49 52 82 88 111 104 82 180 185 229
310 39 101 67 200 67 242 1 52 -20 123 -49 167 -15 23 -27 55 -28 74 -2 85
-23 133 -86 198 -34 34 -76 81 -95 104 -41 48 -94 77 -158 86 -63 8 -103 47
-103 97 0 23 -5 36 -13 36 -21 0 -57 -44 -57 -68 0 -34 -18 -26 -35 15 -9 21
-44 80 -79 133 -98 147 -101 154 -100 242 1 67 -1 76 -15 68 -25 -13 -111 -99
-111 -111 0 -6 -5 -9 -12 -7 -7 3 -13 21 -15 42 -5 79 -55 160 -182 290 -157
162 -182 212 -182 366 0 44 -4 80 -8 80 -5 0 -25 -19 -44 -42z m137 -557 c-1
-54 -8 -79 -34 -131 -18 -36 -44 -78 -57 -94 -37 -45 -75 -125 -78 -168 -4
-52 -10 -55 -26 -16 -9 20 -14 68 -14 123 0 111 18 151 111 245 55 57 70 82
73 125 1 5 7 3 14 -4 7 -7 12 -37 11 -80z m160 -222 c-24 -35 -29 -54 -32
-115 -4 -79 7 -124 43 -178 l23 -34 -32 -37 c-18 -20 -43 -67 -56 -103 -13
-37 -27 -72 -32 -78 -15 -21 -75 -26 -100 -10 -13 8 -42 18 -66 22 -25 4 -47
14 -52 24 -12 23 -15 141 -5 200 22 132 118 255 247 320 45 22 83 38 86 35 3
-2 -8 -23 -24 -46z m196 -87 c0 -29 12 -57 45 -108 49 -76 56 -99 26 -89 -10
3 -38 -1 -62 -9 -29 -10 -47 -12 -54 -5 -5 5 -11 43 -13 83 -3 58 0 83 16 120
25 56 42 59 42 8z m-745 -61 c81 -37 135 -122 135 -215 0 -40 -19 -116 -29
-116 -3 0 -28 11 -55 25 -27 14 -60 25 -72 25 -32 0 -36 12 -18 49 26 52 22
141 -9 201 -30 58 -22 63 48 31z m-201 -223 c17 -64 7 -102 -44 -173 -28 -38
-63 -95 -77 -127 -29 -63 -29 -63 -68 -48 -25 9 -27 14 -20 48 13 71 46 128
110 192 45 44 67 75 71 97 7 38 19 43 28 11z m1063 -30 c27 -25 47 -81 39
-111 -6 -23 18 -57 39 -57 7 0 16 15 19 33 12 57 61 97 120 97 34 0 75 -37 97
-87 14 -34 23 -43 43 -43 14 0 27 -4 30 -9 3 -5 25 -6 49 -4 35 4 52 0 85 -21
57 -36 74 -73 74 -162 0 -67 2 -73 29 -93 30 -22 49 -73 49 -129 0 -46 -74
-255 -113 -321 -42 -70 -145 -174 -199 -202 -56 -28 -119 -42 -308 -68 -145
-20 -247 -35 -415 -62 -38 -6 -88 -13 -110 -15 -22 -3 -57 -16 -78 -30 -43
-28 -75 -25 -120 13 -16 12 -35 23 -44 23 -8 0 -35 -20 -60 -45 -49 -50 -93
-59 -132 -27 -40 33 -42 70 -7 173 17 52 44 116 59 142 41 69 123 164 157 182
30 16 30 16 13 40 -23 31 -25 31 -45 -4 -33 -59 -108 -82 -148 -46 -15 13 -24
14 -61 4 -65 -17 -123 2 -176 57 -24 24 -45 56 -49 71 -12 55 -14 59 -24 43
-15 -23 -12 -114 5 -154 13 -31 13 -41 2 -68 -23 -53 -52 -73 -109 -73 -41 0
-54 4 -72 26 -21 24 -29 26 -82 24 -32 -2 -85 -13 -118 -24 -32 -12 -86 -25
-120 -28 -148 -14 -206 74 -206 306 0 115 20 325 40 430 23 122 130 157 193
63 62 -92 69 -202 27 -410 -12 -57 -20 -106 -17 -108 3 -3 20 -1 38 4 27 6 39
18 57 58 45 93 143 197 202 215 34 10 43 9 81 -12 24 -13 53 -39 64 -56 11
-18 23 -32 26 -33 3 0 11 23 18 52 17 65 89 210 135 269 44 59 80 74 134 59
50 -13 69 -31 95 -89 13 -31 17 -55 13 -83 -6 -35 -4 -39 20 -48 38 -15 41
-14 53 35 15 60 57 88 121 82 33 -4 50 -12 66 -33 22 -27 22 -27 58 -10 20 9
59 18 87 19 l52 2 17 65 c21 82 51 151 75 170 10 8 39 15 64 16 25 0 57 6 71
12 32 14 69 6 97 -20z m-920 -945 c-24 -27 -75 -153 -92 -228 -14 -59 -66
-200 -97 -262 -16 -31 4 -70 39 -79 40 -10 94 22 108 66 9 26 17 34 31 32 11
-2 47 -4 82 -5 53 0 62 -3 56 -16 -3 -9 -15 -42 -27 -73 -20 -56 -20 -58 -2
-78 23 -25 65 -26 97 0 15 11 39 54 59 102 36 90 42 98 79 98 14 0 48 11 75
25 51 25 85 32 85 16 0 -5 -21 -59 -46 -120 -25 -61 -44 -119 -42 -128 2 -10
15 -24 29 -32 22 -12 29 -12 60 3 36 17 45 34 144 282 11 27 19 32 59 38 25 3
67 9 92 12 27 4 45 3 43 -3 -2 -5 -24 -57 -48 -116 -41 -103 -43 -108 -27
-132 9 -14 26 -25 37 -25 30 0 78 31 85 55 14 45 98 240 106 246 11 7 199 31
204 26 8 -8 -122 -174 -179 -229 -285 -276 -717 -354 -1092 -197 -165 68 -341
214 -442 367 -55 82 -139 259 -129 270 9 8 110 41 128 42 9 0 34 -11 54 -25
20 -13 58 -28 85 -31 27 -4 49 -7 49 -8 0 -2 -23 -58 -50 -127 -53 -130 -56
-160 -19 -180 27 -14 81 -4 102 19 8 9 51 107 95 217 l80 200 55 0 c30 0 59 3
63 8 17 16 27 -13 11 -30z"/>
<path d="M2282 2063 c-58 -159 -80 -347 -52 -440 17 -56 66 -115 93 -111 30 4
32 26 4 37 -28 11 -44 45 -56 120 -11 68 -1 141 38 299 16 67 28 129 24 137
-11 30 -31 13 -51 -42z"/>
<path d="M2192 2097 c-19 -23 -70 -202 -82 -287 -23 -167 27 -319 102 -308 13
2 23 10 23 18 0 9 -7 14 -18 12 -13 -2 -24 10 -39 45 -33 72 -29 185 11 340
32 124 38 178 22 187 -5 3 -13 0 -19 -7z"/>
<path d="M2571 2051 c-7 -5 -21 -37 -31 -72 -12 -45 -23 -67 -39 -75 -32 -16
-71 -52 -71 -65 0 -25 22 -49 45 -49 24 0 25 -3 25 -58 0 -31 4 -73 10 -91 11
-41 56 -91 81 -91 27 0 49 28 49 61 0 24 -4 29 -25 29 -25 0 -25 1 -25 90 l0
90 44 28 c24 15 58 35 75 44 46 25 38 37 -26 40 l-58 3 -6 51 c-9 72 -18 84
-48 65z"/>
<path d="M616 1968 c-41 -207 -59 -496 -35 -582 6 -21 22 -50 36 -64 22 -22
30 -24 76 -19 73 8 119 23 161 52 31 21 40 23 61 13 34 -15 67 3 89 50 14 28
20 33 27 21 5 -8 9 -27 9 -42 0 -35 28 -97 44 -97 6 0 17 4 25 9 12 8 11 15
-3 46 -17 35 -17 43 -1 156 9 66 15 129 11 142 -5 21 -45 47 -72 47 -17 0
-102 -96 -127 -144 -11 -23 -23 -59 -26 -81 l-6 -40 -65 -7 c-62 -7 -111 -14
-155 -20 -31 -5 -30 49 1 209 33 173 36 273 9 328 -23 47 -52 58 -59 23z"/>
<path d="M1423 1955 c-93 -112 -163 -320 -141 -417 20 -89 91 -134 163 -103
50 20 45 50 -8 50 -69 0 -83 48 -46 158 29 86 96 227 108 227 30 0 17 80 -17
106 -24 19 -27 18 -59 -21z"/>
<path d="M2768 1875 c-66 -70 -101 -140 -95 -195 5 -47 41 -90 76 -90 24 0 51
31 51 58 0 36 24 25 45 -20 13 -29 28 -45 44 -48 23 -5 23 -6 6 -23 -44 -45
-115 -68 -249 -83 -72 -7 -165 -18 -206 -23 -41 -6 -147 -20 -235 -31 -88 -11
-167 -22 -175 -25 -8 -2 -43 -6 -78 -10 -71 -6 -130 -32 -212 -94 -84 -63
-141 -145 -190 -272 -28 -75 -26 -89 8 -56 60 58 118 64 190 22 26 -16 31 -16
53 -2 13 9 69 23 124 32 146 23 393 59 465 69 204 27 266 38 292 52 81 42 193
179 223 273 8 25 23 71 34 101 25 67 27 123 5 141 -13 10 -17 10 -24 0 -20
-33 -30 4 -30 114 l0 114 -29 20 c-16 12 -34 21 -39 21 -6 0 -30 -20 -54 -45z
m-238 -473 c0 -5 -9 -19 -20 -32 -11 -13 -20 -25 -20 -27 0 -1 9 -12 20 -23
11 -11 20 -31 20 -45 0 -34 18 -32 26 3 11 54 23 72 47 72 13 0 28 5 33 10 13
13 41 4 48 -16 3 -9 -1 -28 -9 -44 -8 -16 -15 -31 -15 -35 0 -12 24 -4 36 12
7 10 16 15 20 11 8 -8 -49 -68 -65 -68 -5 0 -14 7 -21 15 -11 13 -10 22 4 51
18 39 13 62 -9 44 -8 -7 -22 -33 -31 -58 -25 -68 -33 -76 -54 -57 -16 14 -19
14 -33 1 -9 -9 -27 -20 -42 -26 -37 -14 -76 14 -68 50 7 33 35 72 61 86 16 8
19 13 10 22 -9 9 -6 18 12 37 23 24 50 33 50 17z m-200 -46 c0 -8 -4 -18 -10
-21 -20 -12 -9 -31 18 -30 25 0 27 -3 32 -52 5 -51 5 -52 -32 -73 -27 -15 -47
-19 -71 -15 -24 5 -37 2 -46 -9 -33 -40 -77 5 -52 52 16 30 15 57 -2 43 -13
-10 -27 -6 -27 9 0 4 11 12 24 18 37 17 61 -5 52 -49 -9 -49 -9 -53 2 -57 11
-3 23 26 52 126 17 58 25 72 40 72 11 0 20 -6 20 -14z m-220 -117 c0 -10 -5
-30 -10 -45 -7 -18 -7 -30 0 -39 13 -16 -11 -38 -33 -29 -8 3 -27 -2 -41 -11
-24 -16 -25 -15 -41 8 -21 32 -12 66 27 106 24 25 38 31 64 29 25 -1 34 -7 34
-19z"/>
<path d="M1970 1850 c-32 -8 -63 -54 -89 -132 -28 -82 -27 -152 2 -203 19 -34
28 -40 61 -43 110 -9 158 132 101 300 -14 40 -25 74 -25 74 0 7 -30 9 -50 4z"/>
<path d="M2361 1792 c-18 -33 -34 -138 -27 -174 8 -45 50 -98 78 -98 25 0 57
38 58 68 0 17 -6 22 -25 22 -25 0 -25 1 -25 83 0 69 -3 87 -18 100 -23 21 -29
21 -41 -1z"/>
<path d="M1551 1738 c-9 -31 -15 -76 -26 -215 -6 -68 9 -116 34 -111 13 3 17
23 23 96 9 135 38 189 88 162 15 -8 21 -6 29 9 8 15 6 25 -11 46 -18 23 -27
26 -55 22 -24 -4 -36 -2 -40 9 -9 25 -31 15 -42 -18z"/>
<path d="M1763 1728 c-12 -15 -39 -98 -46 -144 -8 -44 8 -104 35 -131 29 -29
45 -24 77 22 27 40 23 66 -9 58 -22 -6 -22 -5 -15 79 9 104 -11 156 -42 116z"/>
</g>
</svg>
